<svg xmlns="http://www.w3.org/2000/svg" version="1.0" width="718.000000pt" height="614.000000pt" viewBox="0 0 718.000000 614.000000" preserveAspectRatio="xMidYMid meet">

<g transform="translate(0.000000,614.000000) scale(0.100000,-0.100000)" fill="#000000" stroke="none">
<path d="M3270 5202 c-23 -19 -23 -19 -6 -56 21 -45 47 -164 49 -227 2 -57 -19 -84 -75 -100 -77 -20 -95 11 -135 226 -15 85 -21 100 -38 103 -45 5 -48 -7 -25 -134 33 -185 45 -221 82 -240 69 -36 197 8 232 81 19 39 19 40 -4 183 -14 85 -31 153 -40 164 -15 20 -16 20 -40 0z"/>
<path d="M4204 5172 c-21 -95 -25 -104 -42 -97 -9 4 -38 10 -64 12 -82 9 -143 -49 -167 -160 -14 -59 -1 -94 35 -103 35 -9 103 26 144 73 39 44 45 42 20 -7 -31 -61 -24 -100 20 -100 4 0 14 24 20 53 7 28 33 110 57 180 24 70 43 135 41 144 -2 9 -15 20 -31 24 -24 6 -28 4 -33 -19z m-86 -132 c17 -11 32 -25 32 -31 0 -18 -70 -97 -106 -120 -44 -27 -58 -17 -52 35 9 74 45 130 88 135 3 1 20 -8 38 -19z"/>
<path d="M3710 5126 c-26 -8 -46 -27 -79 -76 -24 -36 -41 -56 -38 -45 25 86 20 125 -17 125 -28 0 -28 -2 -46 -238 -11 -147 -6 -172 35 -172 24 0 25 3 25 63 l0 62 43 -3 c89 -6 167 77 167 179 0 92 -29 125 -90 105z m21 -73 c20 -52 -7 -157 -43 -169 -22 -7 -88 13 -88 27 0 35 89 169 112 169 5 0 13 -12 19 -27z"/>
<path d="M4750 4901 c-73 -23 -139 -81 -167 -150 -20 -46 -12 -110 18 -150 13 -17 47 -43 76 -58 61 -29 115 -28 182 6 51 27 118 104 131 152 33 123 -108 240 -240 200z m113 -50 c40 -15 57 -40 57 -82 0 -110 -124 -219 -215 -189 -66 22 -83 82 -44 155 51 97 131 143 202 116z"/>
<path d="M2370 4775 c-7 -8 -10 -21 -7 -29 17 -43 201 -326 213 -326 30 0 34 35 9 96 -33 80 -33 200 1 187 7 -3 34 -41 59 -84 49 -84 68 -101 90 -78 12 12 5 30 -49 124 -52 90 -68 111 -89 113 -55 7 -89 -79 -69 -172 5 -25 8 -46 6 -46 -2 0 -25 42 -50 93 -43 86 -78 137 -95 137 -3 0 -12 -7 -19 -15z"/>
<path d="M2241 4485 c-17 -20 -34 -47 -37 -60 -23 -92 82 -229 161 -209 39 10 75 59 75 102 0 47 -16 76 -25 47 -28 -84 -44 -96 -94 -70 -36 18 -81 80 -81 111 0 23 24 49 58 61 21 8 21 10 6 31 -20 29 -27 28 -63 -13z"/>
<path d="M5058 4486 c-53 -19 -82 -40 -113 -80 -32 -42 -30 -62 8 -90 23 -17 41 -21 98 -19 l70 1 -41 -29 c-42 -31 -49 -49 -26 -68 11 -9 35 3 117 62 57 41 124 87 148 103 24 16 50 38 58 50 12 18 11 24 -4 43 l-18 22 -51 -45 -51 -45 -17 29 c-36 62 -111 90 -178 66z m99 -34 c13 -8 47 -82 40 -88 -2 -2 -38 -12 -79 -21 -79 -17 -128 -12 -128 11 0 20 78 85 115 95 39 12 38 12 52 3z"/>
<path d="M5482 4218 c-29 -29 -2 -72 40 -66 30 4 38 46 12 65 -22 16 -37 16 -52 1z"/>
<path d="M2040 4207 c-29 -15 -60 -73 -60 -112 1 -67 82 -157 156 -171 26 -5 38 0 64 23 28 25 34 38 37 84 3 39 0 60 -11 74 l-15 20 -1 -20 c-1 -47 -22 -96 -46 -107 -37 -17 -45 -2 -32 72 12 78 2 112 -40 134 -23 12 -33 12 -52 3z m42 -74 c18 -16 24 -66 12 -97 -15 -40 -81 45 -70 90 7 28 32 31 58 7z"/>
<path d="M5295 4125 c-126 -60 -141 -73 -121 -100 13 -18 18 -17 121 30 131 60 150 74 141 103 -4 12 -13 22 -19 21 -7 0 -62 -25 -122 -54z"/>
<path d="M1766 3978 c-2 -7 -20 -64 -40 -126 -36 -108 -37 -114 -20 -133 28 -31 42 -23 49 31 4 28 9 50 12 50 3 0 68 -30 144 -66 144 -69 182 -76 187 -37 3 20 -14 31 -153 98 -133 63 -156 77 -150 92 31 74 31 74 11 89 -24 17 -36 18 -40 2z"/>
<path d="M5386 3918 c-49 -11 -92 -36 -104 -62 -21 -48 23 -88 123 -111 l50 -12 -47 -8 c-61 -9 -79 -23 -71 -53 4 -18 11 -22 27 -18 77 22 178 45 219 51 48 6 48 6 33 30 -9 14 -16 30 -16 37 0 99 -103 169 -214 146z m142 -61 c13 -10 17 -83 4 -91 -5 -3 -38 -1 -74 4 -116 17 -147 44 -87 75 59 31 126 36 157 12z"/>
<path d="M3722 3838 c-6 -6 -12 -22 -12 -35 0 -26 -21 -30 -40 -8 -20 24 -35 18 -79 -30 -45 -49 -48 -57 -26 -75 22 -19 18 -40 -8 -40 -35 0 -47 -19 -47 -75 0 -56 12 -75 47 -75 27 0 29 -12 6 -46 -16 -25 -15 -26 28 -70 47 -47 60 -52 79 -29 19 23 40 18 40 -9 0 -36 22 -47 87 -44 57 3 58 3 61 36 4 36 12 39 48 15 25 -16 26 -15 70 28 47 47 52 60 29 79 -25 21 -17 39 18 42 l32 3 0 70 c0 69 0 70 -29 75 -34 6 -43 22 -21 40 23 19 19 30 -27 77 -46 46 -59 51 -78 28 -21 -25 -39 -17 -42 18 -3 32 -3 32 -63 35 -38 2 -65 -2 -73 -10z m88 -58 c0 -15 12 -27 42 -40 40 -17 44 -18 61 -3 15 15 19 15 32 2 12 -12 13 -20 3 -45 -14 -39 7 -87 40 -92 30 -5 32 -52 2 -52 -13 0 -26 -12 -37 -35 -14 -30 -15 -38 -3 -60 12 -22 12 -28 -2 -41 -14 -14 -18 -14 -39 -1 -21 14 -28 14 -56 2 -20 -9 -35 -23 -39 -39 -9 -36 -54 -37 -54 -2 0 34 -65 61 -96 41 -18 -12 -23 -11 -37 2 -14 14 -14 18 0 39 14 22 13 27 -4 56 -11 18 -29 34 -41 36 -33 5 -31 52 2 52 19 0 27 9 40 41 15 38 15 43 1 59 -14 15 -13 18 5 35 19 17 21 17 38 2 17 -15 21 -15 52 1 22 10 36 26 38 40 5 30 52 32 52 2z"/>
<path d="M3733 3684 c-121 -60 -58 -254 73 -229 113 21 139 166 41 225 -39 24 -71 25 -114 4z m90 -45 c29 -16 37 -28 37 -63 0 -68 -78 -99 -127 -50 -59 59 15 152 90 113z"/>
<path d="M4340 3775 c0 -20 5 -25 25 -25 20 0 25 5 25 25 0 20 -5 25 -25 25 -20 0 -25 -5 -25 -25z"/>
<path d="M3390 3650 c0 -15 7 -20 25 -20 18 0 25 5 25 20 0 15 -7 20 -25 20 -18 0 -25 -5 -25 -20z"/>
<path d="M4140 3575 c0 -20 5 -25 25 -25 20 0 25 5 25 25 0 20 -5 25 -25 25 -20 0 -25 -5 -25 -25z"/>
<path d="M3260 3450 c0 -15 7 -20 25 -20 18 0 25 5 25 20 0 15 -7 20 -25 20 -18 0 -25 -5 -25 -20z"/>
<path d="M3173 3349 c-66 -25 -141 -93 -173 -155 -22 -42 -25 -62 -25 -144 0 -110 16 -150 91 -230 40 -43 44 -52 44 -98 0 -28 -4 -54 -10 -57 -14 -9 -12 -57 4 -80 7 -11 13 -35 13 -54 0 -24 7 -40 25 -56 14 -12 32 -34 39 -50 44 -90 170 -91 216 -1 9 16 27 39 40 49 18 15 23 27 22 56 -2 21 5 47 15 63 16 24 16 29 2 63 -9 21 -16 54 -16 75 0 32 8 46 48 87 118 120 134 278 43 414 -39 58 -110 112 -169 129 -58 16 -152 11 -209 -11z m227 -51 c96 -41 160 -137 160 -239 0 -83 -24 -142 -87 -210 -46 -49 -56 -67 -61 -104 -4 -39 -8 -45 -28 -45 -24 0 -24 2 -24 95 l0 96 36 32 c64 56 80 126 45 202 -22 50 -76 97 -105 93 -19 -3 -21 -11 -24 -70 -3 -64 -4 -68 -27 -68 -23 0 -24 4 -27 67 -2 52 -7 68 -19 71 -22 4 -80 -38 -102 -75 -38 -66 -13 -189 48 -229 24 -16 25 -21 25 -115 0 -99 0 -99 -25 -99 -23 0 -25 4 -25 46 0 42 -4 50 -50 94 -110 106 -127 246 -45 365 78 114 206 149 335 93z m-170 -254 c17 -19 89 -18 112 3 12 11 18 30 18 60 0 49 16 54 37 12 32 -61 3 -153 -57 -184 l-30 -16 0 -109 0 -110 -25 0 -25 0 0 107 0 107 -47 42 c-46 39 -48 44 -47 92 0 31 7 61 19 79 l19 28 7 -48 c4 -27 13 -55 19 -63z m204 -403 c4 -5 3 -16 0 -25 -5 -14 -27 -16 -144 -16 -139 0 -158 5 -146 35 4 12 32 15 145 15 77 0 142 -4 145 -9z m-24 -116 l0 -25 -119 0 c-120 0 -139 5 -127 35 4 12 30 15 126 15 l120 0 0 -25z m-70 -100 c-27 -29 -49 -31 -90 -10 -48 25 -35 35 42 35 l71 0 -23 -25z"/>
<path d="M4240 3350 c0 -15 7 -20 25 -20 18 0 25 5 25 20 0 15 -7 20 -25 20 -18 0 -25 -5 -25 -20z"/>
<path d="M1785 3265 c-46 -25 -63 -44 -81 -91 -29 -76 7 -159 83 -190 100 -42 213 34 213 145 0 100 -130 182 -215 136z"/>
<path d="M5535 3273 c-124 -34 -145 -206 -35 -280 125 -85 288 67 217 204 -31 60 -114 95 -182 76z"/>
<path d="M4123 3244 c-7 -3 -13 -19 -13 -35 0 -32 -19 -39 -40 -14 -19 23 -32 18 -79 -29 -43 -44 -44 -45 -28 -70 22 -33 21 -46 -2 -46 -44 0 -51 -10 -51 -69 0 -62 11 -81 47 -81 26 0 30 -21 8 -40 -22 -18 -19 -26 26 -75 44 -48 59 -54 79 -30 19 22 40 18 40 -8 0 -35 19 -47 71 -47 65 0 79 7 79 41 0 32 19 39 40 14 19 -23 30 -19 77 27 48 47 50 54 27 79 -20 22 -13 35 26 43 l31 6 -3 67 -3 68 -32 3 c-35 3 -43 21 -18 42 23 19 19 30 -27 77 -46 47 -59 51 -78 28 -18 -22 -34 -13 -40 21 -5 28 -7 29 -65 31 -33 1 -66 -1 -72 -3z m91 -69 c4 -16 19 -30 39 -39 27 -12 35 -12 56 1 21 13 25 13 39 -1 13 -12 14 -18 4 -28 -26 -26 3 -108 38 -108 15 0 20 -7 20 -25 0 -18 -5 -25 -19 -25 -22 0 -51 -35 -51 -62 0 -10 6 -27 12 -38 10 -16 10 -23 -4 -37 -16 -16 -19 -16 -37 1 -18 16 -21 16 -57 -1 -26 -12 -40 -26 -42 -41 -5 -31 -49 -31 -54 0 -2 12 -18 30 -36 41 -30 17 -34 18 -56 4 -22 -15 -25 -15 -40 2 -14 15 -14 19 0 32 14 14 13 20 -2 57 -13 33 -21 42 -40 42 -33 0 -35 47 -2 52 12 2 30 18 41 36 17 30 18 34 4 56 -15 22 -15 25 3 41 16 14 22 15 35 5 28 -23 95 6 95 41 0 31 46 25 54 -6z"/>
<path d="M4124 3081 c-37 -23 -68 -91 -59 -132 9 -38 50 -77 97 -91 76 -22 143 35 143 123 0 53 -21 84 -72 105 -44 19 -72 17 -109 -5z m113 -53 c33 -30 31 -80 -3 -107 -50 -39 -108 -16 -120 46 -13 66 73 108 123 61z"/>
<path d="M3760 3125 c0 -20 5 -25 25 -25 20 0 25 5 25 25 0 20 -5 25 -25 25 -20 0 -25 -5 -25 -25z"/>
<path d="M2095 2670 c-4 -6 3 -25 14 -44 12 -18 21 -38 21 -43 0 -6 -57 -22 -127 -38 -185 -40 -206 -51 -188 -98 5 -11 35 -7 172 25 173 39 182 39 183 -4 0 -34 12 -48 42 -48 26 0 30 3 25 23 -14 56 -79 222 -90 229 -17 11 -45 10 -52 -2z"/>
<path d="M5380 2613 c0 -10 -11 -36 -25 -58 -56 -92 -13 -203 97 -249 111 -47 156 26 83 134 -19 29 -35 54 -35 56 0 2 21 -10 46 -26 49 -31 69 -30 77 1 4 16 -7 26 -66 55 -40 20 -93 52 -120 70 -54 39 -57 40 -57 17z m78 -127 c40 -43 72 -95 72 -116 0 -16 -41 -11 -90 11 -56 25 -80 47 -80 72 0 20 36 77 49 77 5 0 27 -20 49 -44z"/>
<path d="M5122 2318 c-32 -32 9 -96 44 -67 20 17 17 56 -5 69 -24 13 -24 13 -39 -2z"/>
<path d="M2060 2281 c-111 -36 -151 -119 -87 -179 33 -31 97 -56 110 -43 8 8 8 11 0 11 -20 0 -73 61 -73 85 0 39 23 48 51 19 65 -69 149 -85 178 -32 41 73 -83 170 -179 139z m120 -61 c25 -25 25 -37 1 -50 -29 -15 -50 -12 -82 11 -36 25 -36 35 -1 47 42 16 60 14 82 -8z"/>
<path d="M5203 2231 c-11 -18 -4 -27 79 -92 109 -86 139 -103 150 -86 4 7 8 17 8 24 0 17 -200 173 -222 173 -2 0 -9 -9 -15 -19z"/>
<path d="M4994 2129 c-17 -19 -17 -21 29 -67 l47 -48 -29 -17 c-38 -22 -66 -92 -57 -141 8 -44 61 -114 104 -139 81 -47 125 33 87 159 l-14 49 22 -30 c49 -67 73 -79 97 -49 11 13 5 24 -46 77 -33 34 -89 95 -124 135 -77 89 -91 98 -116 71z m141 -243 c21 -70 20 -116 -2 -116 -39 1 -113 91 -113 137 0 16 11 28 38 42 34 18 38 19 50 3 7 -9 19 -39 27 -66z"/>
<path d="M2250 1971 c-80 -43 -110 -113 -70 -163 23 -30 88 -55 116 -44 15 6 12 11 -20 29 -22 12 -43 33 -48 46 -7 20 -2 29 27 57 44 41 107 63 130 44 8 -7 19 -26 23 -43 9 -37 24 -44 46 -22 14 14 14 20 2 43 -19 37 -85 72 -132 72 -22 -1 -55 -9 -74 -19z"/>
<path d="M2525 1742 c-132 -136 -139 -144 -121 -158 27 -19 40 -18 61 6 39 43 185 94 200 70 4 -7 -24 -44 -64 -85 -39 -40 -71 -77 -71 -83 0 -5 7 -15 15 -22 12 -10 28 1 96 62 44 40 87 86 96 101 13 26 13 31 -3 48 -32 36 -97 33 -204 -8 -8 -3 17 20 55 51 111 91 136 129 98 151 -15 8 -41 -14 -158 -133z"/>
<path d="M4665 1818 c-99 -54 -143 -180 -101 -283 22 -51 81 -112 123 -126 129 -42 261 127 211 272 -18 55 -65 115 -102 133 -39 18 -102 21 -131 4z m105 -74 c61 -52 96 -162 70 -224 -14 -34 -55 -60 -94 -60 -61 0 -136 112 -136 203 0 95 90 140 160 81z"/>
<path d="M3148 1552 c-61 -142 -98 -246 -98 -277 0 -27 7 -39 33 -58 64 -48 164 -64 211 -34 30 20 59 73 117 217 42 106 42 125 -2 118 -19 -2 -25 -14 -39 -68 -19 -75 -65 -187 -87 -212 -34 -39 -130 -30 -153 13 -17 31 -11 58 41 186 27 69 48 131 45 138 -2 7 -14 15 -26 18 -18 5 -25 -2 -42 -41z"/>
<path d="M4123 1552 c-8 -5 -9 -20 -3 -52 15 -77 14 -80 -29 -80 -108 0 -173 -129 -125 -250 18 -44 48 -59 83 -41 28 15 68 70 85 117 l15 39 0 -48 c1 -62 14 -87 42 -80 19 5 21 11 15 50 -3 24 -8 101 -12 171 -7 166 -23 204 -71 174z m0 -191 c8 -8 -24 -107 -50 -151 -9 -17 -23 -30 -30 -30 -36 0 -50 127 -19 175 16 24 22 26 54 20 21 -4 40 -10 45 -14z"/>
<path d="M3560 1383 c0 -5 -12 -80 -25 -168 -29 -189 -30 -199 -9 -219 30 -30 41 -19 48 47 l7 64 47 -4 c95 -8 172 73 172 181 0 105 -61 129 -134 54 -23 -24 -49 -54 -58 -68 -16 -24 -16 -22 -2 23 20 61 12 97 -21 97 -14 0 -25 -3 -25 -7z m175 -74 c11 -32 -5 -116 -27 -144 -22 -29 -47 -31 -89 -10 l-30 16 23 40 c31 55 86 119 103 119 8 0 17 -9 20 -21z"/>
</g>
</svg>